<?xml version="1.0" encoding="UTF-8" standalone="no"?>
<!DOCTYPE svg PUBLIC "-//W3C//DTD SVG 1.1//EN"
 "http://www.w3.org/Graphics/SVG/1.1/DTD/svg11.dtd">
<!-- Generated by graphviz version 5.0.0 (20220707.1540)
 -->
<!-- Title: StorageDiagram Pages: 1 -->
<svg width="2061pt" height="762pt"
 viewBox="0.00 0.00 2060.69 761.60" xmlns="http://www.w3.org/2000/svg" xmlns:xlink="http://www.w3.org/1999/xlink">
<g id="graph0" class="graph" transform="scale(1 1) rotate(0) translate(4 757.6)">
<title>StorageDiagram</title>
<polygon fill="white" stroke="transparent" points="-4,4 -4,-757.6 2056.69,-757.6 2056.69,4 -4,4"/>
<!-- 6 -->
<g id="node1" class="node">
<title>6</title>
<polygon fill="#f2f2f2" stroke="black" points="0,-388.5 0,-562.1 801.71,-562.1 801.71,-388.5 0,-388.5"/>
<text text-anchor="middle" x="400.86" y="-545.5" font-family="Courier New" font-size="14.00">StoreOpt &lt;&lt;Contract&gt;&gt;</text>
<polyline fill="none" stroke="black" points="0,-537.3 801.71,-537.3 "/>
<text text-anchor="middle" x="24.8" y="-520.7" font-family="Courier New" font-size="14.00">slot</text>
<polyline fill="none" stroke="black" points="0,-512.5 49.61,-512.5 "/>
<text text-anchor="middle" x="24.8" y="-495.9" font-family="Courier New" font-size="14.00">0</text>
<polyline fill="none" stroke="black" points="0,-487.7 49.61,-487.7 "/>
<text text-anchor="middle" x="24.8" y="-471.1" font-family="Courier New" font-size="14.00">1</text>
<polyline fill="none" stroke="black" points="0,-462.9 49.61,-462.9 "/>
<text text-anchor="middle" x="24.8" y="-446.3" font-family="Courier New" font-size="14.00">2</text>
<polyline fill="none" stroke="black" points="0,-438.1 49.61,-438.1 "/>
<text text-anchor="middle" x="24.8" y="-421.5" font-family="Courier New" font-size="14.00">3</text>
<polyline fill="none" stroke="black" points="0,-413.3 49.61,-413.3 "/>
<text text-anchor="middle" x="24.8" y="-396.7" font-family="Courier New" font-size="14.00">4&#45;43</text>
<polyline fill="none" stroke="black" points="49.61,-388.5 49.61,-537.3 "/>
<text text-anchor="middle" x="425.66" y="-520.7" font-family="Courier New" font-size="14.00">type: &lt;inherited contract&gt;.variable (bytes)</text>
<polyline fill="none" stroke="black" points="49.61,-512.5 801.71,-512.5 "/>
<text text-anchor="middle" x="425.62" y="-495.9" font-family="Courier New" font-size="14.00">uint256: number (32)</text>
<polyline fill="none" stroke="black" points="49.61,-487.7 801.71,-487.7 "/>
<text text-anchor="middle" x="170.32" y="-471.1" font-family="Courier New" font-size="14.00">unallocated (11)</text>
<polyline fill="none" stroke="black" points="291.03,-462.9 291.03,-487.7 "/>
<text text-anchor="middle" x="424.84" y="-471.1" font-family="Courier New" font-size="14.00">address: admin (20)</text>
<polyline fill="none" stroke="black" points="558.65,-462.9 558.65,-487.7 "/>
<text text-anchor="middle" x="679.86" y="-471.1" font-family="Courier New" font-size="14.00">uint8: index (1)</text>
<polyline fill="none" stroke="black" points="49.61,-462.9 801.71,-462.9 "/>
<text text-anchor="middle" x="120.62" y="-446.3" font-family="Courier New" font-size="14.00">unallocated (9)</text>
<polyline fill="none" stroke="black" points="191.63,-438.1 191.63,-462.9 "/>
<text text-anchor="middle" x="262.64" y="-446.3" font-family="Courier New" font-size="14.00">bool: flag3 (1)</text>
<polyline fill="none" stroke="black" points="333.65,-438.1 333.65,-462.9 "/>
<text text-anchor="middle" x="404.66" y="-446.3" font-family="Courier New" font-size="14.00">bool: flag2 (1)</text>
<polyline fill="none" stroke="black" points="475.67,-438.1 475.67,-462.9 "/>
<text text-anchor="middle" x="546.68" y="-446.3" font-family="Courier New" font-size="14.00">bool: flag1 (1)</text>
<polyline fill="none" stroke="black" points="617.69,-438.1 617.69,-462.9 "/>
<text text-anchor="middle" x="709.7" y="-446.3" font-family="Courier New" font-size="14.00">address: admin2 (20)</text>
<polyline fill="none" stroke="black" points="49.61,-438.1 801.71,-438.1 "/>
<text text-anchor="middle" x="425.63" y="-421.5" font-family="Courier New" font-size="14.00">mapping(address=&gt;uint256): balances (32)</text>
<polyline fill="none" stroke="black" points="49.61,-413.3 801.71,-413.3 "/>
<text text-anchor="middle" x="425.33" y="-396.7" font-family="Courier New" font-size="14.00">payments[8]: topPayments (1280)</text>
</g>
<!-- 5 -->
<g id="node6" class="node">
<title>5</title>
<polygon fill="#f2f2f2" stroke="black" points="837.71,-314.5 837.71,-488.1 1139.36,-488.1 1139.36,-314.5 837.71,-314.5"/>
<text text-anchor="middle" x="988.54" y="-471.5" font-family="Courier New" font-size="14.00">payments[8]: topPayments &lt;&lt;Array&gt;&gt;</text>
<polyline fill="none" stroke="black" points="837.71,-463.3 1139.36,-463.3 "/>
<text text-anchor="middle" x="877.22" y="-446.7" font-family="Courier New" font-size="14.00">slot</text>
<polyline fill="none" stroke="black" points="837.71,-438.5 916.72,-438.5 "/>
<text text-anchor="middle" x="877.22" y="-421.9" font-family="Courier New" font-size="14.00">4&#45;8</text>
<polyline fill="none" stroke="black" points="837.71,-413.7 916.72,-413.7 "/>
<text text-anchor="middle" x="877.22" y="-397.1" font-family="Courier New" font-size="14.00">9&#45;14</text>
<polyline fill="none" stroke="black" points="837.71,-388.9 916.72,-388.9 "/>
<text text-anchor="middle" x="877.22" y="-372.3" font-family="Courier New" font-size="14.00">14&#45;34</text>
<polyline fill="none" stroke="black" points="837.71,-364.1 916.72,-364.1 "/>
<text text-anchor="middle" x="877.22" y="-347.5" font-family="Courier New" font-size="14.00">34&#45;39</text>
<polyline fill="none" stroke="black" points="837.71,-339.3 916.72,-339.3 "/>
<text text-anchor="middle" x="877.22" y="-322.7" font-family="Courier New" font-size="14.00">39&#45;44</text>
<polyline fill="none" stroke="black" points="916.72,-314.5 916.72,-463.3 "/>
<text text-anchor="middle" x="1027.64" y="-446.7" font-family="Courier New" font-size="14.00">type: variable (bytes)</text>
<polyline fill="none" stroke="black" points="916.72,-438.5 1138.55,-438.5 "/>
<text text-anchor="middle" x="1027.53" y="-421.9" font-family="Courier New" font-size="14.00">payments (160)</text>
<polyline fill="none" stroke="black" points="916.72,-413.7 1138.55,-413.7 "/>
<text text-anchor="middle" x="1027.53" y="-397.1" font-family="Courier New" font-size="14.00">payments (160)</text>
<polyline fill="none" stroke="black" points="916.72,-388.9 1138.55,-388.9 "/>
<text text-anchor="middle" x="1027.23" y="-372.3" font-family="Courier New" font-size="14.00">&#45;&#45;&#45;&#45; (672)</text>
<polyline fill="none" stroke="black" points="916.72,-364.1 1138.55,-364.1 "/>
<text text-anchor="middle" x="1027.53" y="-347.5" font-family="Courier New" font-size="14.00">payments (160)</text>
<polyline fill="none" stroke="black" points="916.72,-339.3 1138.55,-339.3 "/>
<text text-anchor="middle" x="1027.53" y="-322.7" font-family="Courier New" font-size="14.00">payments (160)</text>
</g>
<!-- 6&#45;&gt;5 -->
<g id="edge1" class="edge">
<title>6:46&#45;&gt;5</title>
<path fill="none" stroke="black" d="M801.71,-401.3C810.12,-401.3 818.74,-401.3 827.44,-401.3"/>
<polygon fill="black" stroke="black" points="827.69,-404.8 837.69,-401.3 827.69,-397.8 827.69,-404.8"/>
</g>
<!-- 1 -->
<g id="node2" class="node">
<title>1</title>
<polygon fill="#f2f2f2" stroke="black" points="1175.36,-579.5 1175.36,-753.1 2052.69,-753.1 2052.69,-579.5 1175.36,-579.5"/>
<text text-anchor="middle" x="1614.02" y="-736.5" font-family="Courier New" font-size="14.00">payments &lt;&lt;Struct&gt;&gt;</text>
<polyline fill="none" stroke="black" points="1175.36,-728.3 2052.69,-728.3 "/>
<text text-anchor="middle" x="1200.16" y="-711.7" font-family="Courier New" font-size="14.00">slot</text>
<polyline fill="none" stroke="black" points="1175.36,-703.5 1224.97,-703.5 "/>
<text text-anchor="middle" x="1200.16" y="-686.9" font-family="Courier New" font-size="14.00">4</text>
<polyline fill="none" stroke="black" points="1175.36,-678.7 1224.97,-678.7 "/>
<text text-anchor="middle" x="1200.16" y="-662.1" font-family="Courier New" font-size="14.00">5</text>
<polyline fill="none" stroke="black" points="1175.36,-653.9 1224.97,-653.9 "/>
<text text-anchor="middle" x="1200.16" y="-637.3" font-family="Courier New" font-size="14.00">6</text>
<polyline fill="none" stroke="black" points="1175.36,-629.1 1224.97,-629.1 "/>
<text text-anchor="middle" x="1200.16" y="-612.5" font-family="Courier New" font-size="14.00">7</text>
<polyline fill="none" stroke="black" points="1175.36,-604.3 1224.97,-604.3 "/>
<text text-anchor="middle" x="1200.16" y="-587.7" font-family="Courier New" font-size="14.00">8</text>
<polyline fill="none" stroke="black" points="1224.97,-579.5 1224.97,-728.3 "/>
<text text-anchor="middle" x="1638.83" y="-711.7" font-family="Courier New" font-size="14.00">type: variable (bytes)</text>
<polyline fill="none" stroke="black" points="1224.97,-703.5 2052.69,-703.5 "/>
<text text-anchor="middle" x="1638.48" y="-686.9" font-family="Courier New" font-size="14.00">uint256: amount (32)</text>
<polyline fill="none" stroke="black" points="1224.97,-678.7 2052.69,-678.7 "/>
<text text-anchor="middle" x="1638.48" y="-662.1" font-family="Courier New" font-size="14.00">uint256: finalAmount (32)</text>
<polyline fill="none" stroke="black" points="1224.97,-653.9 2052.69,-653.9 "/>
<text text-anchor="middle" x="1638.39" y="-637.3" font-family="Courier New" font-size="14.00">uint256: initialAmount (32)</text>
<polyline fill="none" stroke="black" points="1224.97,-629.1 2052.69,-629.1 "/>
<text text-anchor="middle" x="1295.98" y="-612.5" font-family="Courier New" font-size="14.00">unallocated (9)</text>
<polyline fill="none" stroke="black" points="1366.99,-604.3 1366.99,-629.1 "/>
<text text-anchor="middle" x="1459" y="-612.5" font-family="Courier New" font-size="14.00">address: sender (20)</text>
<polyline fill="none" stroke="black" points="1551.01,-604.3 1551.01,-629.1 "/>
<text text-anchor="middle" x="1630.43" y="-612.5" font-family="Courier New" font-size="14.00">bool: checked (1)</text>
<polyline fill="none" stroke="black" points="1709.84,-604.3 1709.84,-629.1 "/>
<text text-anchor="middle" x="1780.85" y="-612.5" font-family="Courier New" font-size="14.00">bool: valid (1)</text>
<polyline fill="none" stroke="black" points="1851.86,-604.3 1851.86,-629.1 "/>
<text text-anchor="middle" x="1952.27" y="-612.5" font-family="Courier New" font-size="14.00">uint8: paymentType (1)</text>
<polyline fill="none" stroke="black" points="1224.97,-604.3 2052.69,-604.3 "/>
<text text-anchor="middle" x="1419.18" y="-587.7" font-family="Courier New" font-size="14.00">unallocated (12)</text>
<polyline fill="none" stroke="black" points="1613.39,-579.5 1613.39,-604.3 "/>
<text text-anchor="middle" x="1832.8" y="-587.7" font-family="Courier New" font-size="14.00">address: receiver (20)</text>
</g>
<!-- 2 -->
<g id="node3" class="node">
<title>2</title>
<polygon fill="#f2f2f2" stroke="black" points="1175.36,-386.5 1175.36,-560.1 2052.69,-560.1 2052.69,-386.5 1175.36,-386.5"/>
<text text-anchor="middle" x="1614.02" y="-543.5" font-family="Courier New" font-size="14.00">payments &lt;&lt;Struct&gt;&gt;</text>
<polyline fill="none" stroke="black" points="1175.36,-535.3 2052.69,-535.3 "/>
<text text-anchor="middle" x="1200.16" y="-518.7" font-family="Courier New" font-size="14.00">slot</text>
<polyline fill="none" stroke="black" points="1175.36,-510.5 1224.97,-510.5 "/>
<text text-anchor="middle" x="1200.16" y="-493.9" font-family="Courier New" font-size="14.00">9</text>
<polyline fill="none" stroke="black" points="1175.36,-485.7 1224.97,-485.7 "/>
<text text-anchor="middle" x="1200.16" y="-469.1" font-family="Courier New" font-size="14.00">10</text>
<polyline fill="none" stroke="black" points="1175.36,-460.9 1224.97,-460.9 "/>
<text text-anchor="middle" x="1200.16" y="-444.3" font-family="Courier New" font-size="14.00">11</text>
<polyline fill="none" stroke="black" points="1175.36,-436.1 1224.97,-436.1 "/>
<text text-anchor="middle" x="1200.16" y="-419.5" font-family="Courier New" font-size="14.00">12</text>
<polyline fill="none" stroke="black" points="1175.36,-411.3 1224.97,-411.3 "/>
<text text-anchor="middle" x="1200.16" y="-394.7" font-family="Courier New" font-size="14.00">13</text>
<polyline fill="none" stroke="black" points="1224.97,-386.5 1224.97,-535.3 "/>
<text text-anchor="middle" x="1638.83" y="-518.7" font-family="Courier New" font-size="14.00">type: variable (bytes)</text>
<polyline fill="none" stroke="black" points="1224.97,-510.5 2052.69,-510.5 "/>
<text text-anchor="middle" x="1638.48" y="-493.9" font-family="Courier New" font-size="14.00">uint256: amount (32)</text>
<polyline fill="none" stroke="black" points="1224.97,-485.7 2052.69,-485.7 "/>
<text text-anchor="middle" x="1638.48" y="-469.1" font-family="Courier New" font-size="14.00">uint256: finalAmount (32)</text>
<polyline fill="none" stroke="black" points="1224.97,-460.9 2052.69,-460.9 "/>
<text text-anchor="middle" x="1638.39" y="-444.3" font-family="Courier New" font-size="14.00">uint256: initialAmount (32)</text>
<polyline fill="none" stroke="black" points="1224.97,-436.1 2052.69,-436.1 "/>
<text text-anchor="middle" x="1295.98" y="-419.5" font-family="Courier New" font-size="14.00">unallocated (9)</text>
<polyline fill="none" stroke="black" points="1366.99,-411.3 1366.99,-436.1 "/>
<text text-anchor="middle" x="1459" y="-419.5" font-family="Courier New" font-size="14.00">address: sender (20)</text>
<polyline fill="none" stroke="black" points="1551.01,-411.3 1551.01,-436.1 "/>
<text text-anchor="middle" x="1630.43" y="-419.5" font-family="Courier New" font-size="14.00">bool: checked (1)</text>
<polyline fill="none" stroke="black" points="1709.84,-411.3 1709.84,-436.1 "/>
<text text-anchor="middle" x="1780.85" y="-419.5" font-family="Courier New" font-size="14.00">bool: valid (1)</text>
<polyline fill="none" stroke="black" points="1851.86,-411.3 1851.86,-436.1 "/>
<text text-anchor="middle" x="1952.27" y="-419.5" font-family="Courier New" font-size="14.00">uint8: paymentType (1)</text>
<polyline fill="none" stroke="black" points="1224.97,-411.3 2052.69,-411.3 "/>
<text text-anchor="middle" x="1419.18" y="-394.7" font-family="Courier New" font-size="14.00">unallocated (12)</text>
<polyline fill="none" stroke="black" points="1613.39,-386.5 1613.39,-411.3 "/>
<text text-anchor="middle" x="1832.8" y="-394.7" font-family="Courier New" font-size="14.00">address: receiver (20)</text>
</g>
<!-- 3 -->
<g id="node4" class="node">
<title>3</title>
<polygon fill="#f2f2f2" stroke="black" points="1175.36,-193.5 1175.36,-367.1 2052.69,-367.1 2052.69,-193.5 1175.36,-193.5"/>
<text text-anchor="middle" x="1614.02" y="-350.5" font-family="Courier New" font-size="14.00">payments &lt;&lt;Struct&gt;&gt;</text>
<polyline fill="none" stroke="black" points="1175.36,-342.3 2052.69,-342.3 "/>
<text text-anchor="middle" x="1200.16" y="-325.7" font-family="Courier New" font-size="14.00">slot</text>
<polyline fill="none" stroke="black" points="1175.36,-317.5 1224.97,-317.5 "/>
<text text-anchor="middle" x="1200.16" y="-300.9" font-family="Courier New" font-size="14.00">34</text>
<polyline fill="none" stroke="black" points="1175.36,-292.7 1224.97,-292.7 "/>
<text text-anchor="middle" x="1200.16" y="-276.1" font-family="Courier New" font-size="14.00">35</text>
<polyline fill="none" stroke="black" points="1175.36,-267.9 1224.97,-267.9 "/>
<text text-anchor="middle" x="1200.16" y="-251.3" font-family="Courier New" font-size="14.00">36</text>
<polyline fill="none" stroke="black" points="1175.36,-243.1 1224.97,-243.1 "/>
<text text-anchor="middle" x="1200.16" y="-226.5" font-family="Courier New" font-size="14.00">37</text>
<polyline fill="none" stroke="black" points="1175.36,-218.3 1224.97,-218.3 "/>
<text text-anchor="middle" x="1200.16" y="-201.7" font-family="Courier New" font-size="14.00">38</text>
<polyline fill="none" stroke="black" points="1224.97,-193.5 1224.97,-342.3 "/>
<text text-anchor="middle" x="1638.83" y="-325.7" font-family="Courier New" font-size="14.00">type: variable (bytes)</text>
<polyline fill="none" stroke="black" points="1224.97,-317.5 2052.69,-317.5 "/>
<text text-anchor="middle" x="1638.48" y="-300.9" font-family="Courier New" font-size="14.00">uint256: amount (32)</text>
<polyline fill="none" stroke="black" points="1224.97,-292.7 2052.69,-292.7 "/>
<text text-anchor="middle" x="1638.48" y="-276.1" font-family="Courier New" font-size="14.00">uint256: finalAmount (32)</text>
<polyline fill="none" stroke="black" points="1224.97,-267.9 2052.69,-267.9 "/>
<text text-anchor="middle" x="1638.39" y="-251.3" font-family="Courier New" font-size="14.00">uint256: initialAmount (32)</text>
<polyline fill="none" stroke="black" points="1224.97,-243.1 2052.69,-243.1 "/>
<text text-anchor="middle" x="1295.98" y="-226.5" font-family="Courier New" font-size="14.00">unallocated (9)</text>
<polyline fill="none" stroke="black" points="1366.99,-218.3 1366.99,-243.1 "/>
<text text-anchor="middle" x="1459" y="-226.5" font-family="Courier New" font-size="14.00">address: sender (20)</text>
<polyline fill="none" stroke="black" points="1551.01,-218.3 1551.01,-243.1 "/>
<text text-anchor="middle" x="1630.43" y="-226.5" font-family="Courier New" font-size="14.00">bool: checked (1)</text>
<polyline fill="none" stroke="black" points="1709.84,-218.3 1709.84,-243.1 "/>
<text text-anchor="middle" x="1780.85" y="-226.5" font-family="Courier New" font-size="14.00">bool: valid (1)</text>
<polyline fill="none" stroke="black" points="1851.86,-218.3 1851.86,-243.1 "/>
<text text-anchor="middle" x="1952.27" y="-226.5" font-family="Courier New" font-size="14.00">uint8: paymentType (1)</text>
<polyline fill="none" stroke="black" points="1224.97,-218.3 2052.69,-218.3 "/>
<text text-anchor="middle" x="1419.18" y="-201.7" font-family="Courier New" font-size="14.00">unallocated (12)</text>
<polyline fill="none" stroke="black" points="1613.39,-193.5 1613.39,-218.3 "/>
<text text-anchor="middle" x="1832.8" y="-201.7" font-family="Courier New" font-size="14.00">address: receiver (20)</text>
</g>
<!-- 4 -->
<g id="node5" class="node">
<title>4</title>
<polygon fill="#f2f2f2" stroke="black" points="1175.36,-0.5 1175.36,-174.1 2052.69,-174.1 2052.69,-0.5 1175.36,-0.5"/>
<text text-anchor="middle" x="1614.02" y="-157.5" font-family="Courier New" font-size="14.00">payments &lt;&lt;Struct&gt;&gt;</text>
<polyline fill="none" stroke="black" points="1175.36,-149.3 2052.69,-149.3 "/>
<text text-anchor="middle" x="1200.16" y="-132.7" font-family="Courier New" font-size="14.00">slot</text>
<polyline fill="none" stroke="black" points="1175.36,-124.5 1224.97,-124.5 "/>
<text text-anchor="middle" x="1200.16" y="-107.9" font-family="Courier New" font-size="14.00">39</text>
<polyline fill="none" stroke="black" points="1175.36,-99.7 1224.97,-99.7 "/>
<text text-anchor="middle" x="1200.16" y="-83.1" font-family="Courier New" font-size="14.00">40</text>
<polyline fill="none" stroke="black" points="1175.36,-74.9 1224.97,-74.9 "/>
<text text-anchor="middle" x="1200.16" y="-58.3" font-family="Courier New" font-size="14.00">41</text>
<polyline fill="none" stroke="black" points="1175.36,-50.1 1224.97,-50.1 "/>
<text text-anchor="middle" x="1200.16" y="-33.5" font-family="Courier New" font-size="14.00">42</text>
<polyline fill="none" stroke="black" points="1175.36,-25.3 1224.97,-25.3 "/>
<text text-anchor="middle" x="1200.16" y="-8.7" font-family="Courier New" font-size="14.00">43</text>
<polyline fill="none" stroke="black" points="1224.97,-0.5 1224.97,-149.3 "/>
<text text-anchor="middle" x="1638.83" y="-132.7" font-family="Courier New" font-size="14.00">type: variable (bytes)</text>
<polyline fill="none" stroke="black" points="1224.97,-124.5 2052.69,-124.5 "/>
<text text-anchor="middle" x="1638.48" y="-107.9" font-family="Courier New" font-size="14.00">uint256: amount (32)</text>
<polyline fill="none" stroke="black" points="1224.97,-99.7 2052.69,-99.7 "/>
<text text-anchor="middle" x="1638.48" y="-83.1" font-family="Courier New" font-size="14.00">uint256: finalAmount (32)</text>
<polyline fill="none" stroke="black" points="1224.97,-74.9 2052.69,-74.9 "/>
<text text-anchor="middle" x="1638.39" y="-58.3" font-family="Courier New" font-size="14.00">uint256: initialAmount (32)</text>
<polyline fill="none" stroke="black" points="1224.97,-50.1 2052.69,-50.1 "/>
<text text-anchor="middle" x="1295.98" y="-33.5" font-family="Courier New" font-size="14.00">unallocated (9)</text>
<polyline fill="none" stroke="black" points="1366.99,-25.3 1366.99,-50.1 "/>
<text text-anchor="middle" x="1459" y="-33.5" font-family="Courier New" font-size="14.00">address: sender (20)</text>
<polyline fill="none" stroke="black" points="1551.01,-25.3 1551.01,-50.1 "/>
<text text-anchor="middle" x="1630.43" y="-33.5" font-family="Courier New" font-size="14.00">bool: checked (1)</text>
<polyline fill="none" stroke="black" points="1709.84,-25.3 1709.84,-50.1 "/>
<text text-anchor="middle" x="1780.85" y="-33.5" font-family="Courier New" font-size="14.00">bool: valid (1)</text>
<polyline fill="none" stroke="black" points="1851.86,-25.3 1851.86,-50.1 "/>
<text text-anchor="middle" x="1952.27" y="-33.5" font-family="Courier New" font-size="14.00">uint8: paymentType (1)</text>
<polyline fill="none" stroke="black" points="1224.97,-25.3 2052.69,-25.3 "/>
<text text-anchor="middle" x="1419.18" y="-8.7" font-family="Courier New" font-size="14.00">unallocated (12)</text>
<polyline fill="none" stroke="black" points="1613.39,-0.5 1613.39,-25.3 "/>
<text text-anchor="middle" x="1832.8" y="-8.7" font-family="Courier New" font-size="14.00">address: receiver (20)</text>
</g>
<!-- 5&#45;&gt;1 -->
<g id="edge2" class="edge">
<title>5:17&#45;&gt;1</title>
<path fill="none" stroke="black" d="M1139.36,-426.3C1204.9,-426.3 1128.36,-523.62 1175.36,-569.3 1176.45,-570.36 1177.55,-571.41 1178.66,-572.45"/>
<polygon fill="black" stroke="black" points="1176.32,-575.05 1186.09,-579.15 1181.01,-569.85 1176.32,-575.05"/>
</g>
<!-- 5&#45;&gt;2 -->
<g id="edge3" class="edge">
<title>5:18&#45;&gt;2</title>
<path fill="none" stroke="black" d="M1139.36,-401.3C1147.88,-401.3 1156.48,-401.42 1165.13,-401.64"/>
<polygon fill="black" stroke="black" points="1165.21,-405.14 1175.31,-401.94 1165.42,-398.14 1165.21,-405.14"/>
</g>
<!-- 5&#45;&gt;3 -->
<g id="edge4" class="edge">
<title>5:20&#45;&gt;3</title>
<path fill="none" stroke="black" d="M1139.36,-351.3C1147.88,-351.3 1156.47,-351.19 1165.12,-350.97"/>
<polygon fill="black" stroke="black" points="1165.41,-354.46 1175.3,-350.66 1165.2,-347.46 1165.41,-354.46"/>
</g>
<!-- 5&#45;&gt;4 -->
<g id="edge5" class="edge">
<title>5:21&#45;&gt;4</title>
<path fill="none" stroke="black" d="M1139.36,-327.3C1204.9,-327.3 1128.36,-229.98 1175.36,-184.3 1176.45,-183.24 1177.55,-182.19 1178.66,-181.15"/>
<polygon fill="black" stroke="black" points="1181.01,-183.75 1186.09,-174.45 1176.32,-178.55 1181.01,-183.75"/>
</g>
</g>
</svg>
